Coordinates
version=1
nRows=10
nColumns=40
inDegrees=yes

Units are S.I. units (second, meters, Newtons, ...)
If the header above contains a line with 'inDegrees', this indicates whether rotational values are in degrees (yes) or radians (no).

endheader
time	pelvis_tilt	pelvis_list	pelvis_rotation	pelvis_tx	pelvis_ty	pelvis_tz	hip_flexion_r	hip_adduction_r	hip_rotation_r	knee_angle_r	knee_angle_r_beta	ankle_angle_r	subtalar_angle_r	mtp_angle_r	hip_flexion_l	hip_adduction_l	hip_rotation_l	knee_angle_l	knee_angle_l_beta	ankle_angle_l	subtalar_angle_l	mtp_angle_l	lumbar_extension	lumbar_bending	lumbar_rotation	arm_flex_r	arm_add_r	arm_rot_r	elbow_flex_r	pro_sup_r	wrist_flex_r	wrist_dev_r	arm_flex_l	arm_add_l	arm_rot_l	elbow_flex_l	pro_sup_l	wrist_flex_l	wrist_dev_l
      8.65000000	    -53.12447611	     17.06018775	     89.99327026	      0.50345813	      0.87147104	     -0.65019856	     14.13670376	    -19.37645048	     39.97906884	     38.18036108	      0.66637301	    -24.13827559	      0.00000000	      0.00000000	    -29.87317996	     29.99488736	    -39.98562071	     23.81195660	      0.41559704	    -32.79426694	      0.00000000	      0.00000000	     89.97367539	    -89.98310376	    -89.97372623	    -47.90208243	    -39.70647159	     89.83396491	      0.09982916	      1.45088457	      0.00000000	      0.00000000	     42.38654997	     52.09788500	     29.94461722	      7.87088808	      3.86492620	      0.00000000	      0.00000000
      8.65500000	    -53.13348208	     17.06255108	     89.99327191	      0.50345426	      0.87139493	     -0.65020324	     14.13761424	    -19.37938809	     39.97908131	     38.19054227	      0.66655071	    -24.13141037	      0.00000000	      0.00000000	    -29.87338387	     29.99488821	    -39.98562792	     23.82544149	      0.41583240	    -32.78165541	      0.00000000	      0.00000000	     89.97375747	    -89.98311770	    -89.97380685	    -47.88307263	    -39.71370243	     89.83347545	      0.10033492	      1.44962331	      0.00000000	      0.00000000	     42.37307603	     52.08370522	     29.94567655	      7.87101001	      3.86681567	      0.00000000	      0.00000000
      8.66000000	    -53.14128859	     17.05797460	     89.99326799	      0.50348039	      0.87134477	     -0.65023905	     14.15608702	    -19.37587832	     39.97909017	     38.21539496	      0.66698447	    -24.12874572	      0.00000000	      0.00000000	    -29.87388979	     29.99488888	    -39.98563490	     23.83419712	      0.41598521	    -32.77063288	      0.00000000	      0.00000000	     89.97378098	    -89.98316653	    -89.97383050	    -47.88003843	    -39.71886647	     89.83341017	      0.10035831	      1.44941729	      0.00000000	      0.00000000	     42.36125180	     52.08467335	     29.95129055	      7.87616105	      3.87163728	      0.00000000	      0.00000000
      8.66500000	    -53.15210414	     17.05936090	     89.99326703	      0.50347902	      0.87128086	     -0.65025294	     14.16736050	    -19.37813387	     39.97910523	     38.24141451	      0.66743859	    -24.12035211	      0.00000000	      0.00000000	    -29.87430541	     29.99488999	    -39.98563997	     23.85354464	      0.41632289	    -32.75436699	      0.00000000	      0.00000000	     89.97378366	    -89.98319502	    -89.97383238	    -47.86636412	    -39.71843812	     89.83324219	      0.10036597	      1.44758858	      0.00000000	      0.00000000	     42.35177994	     52.06916510	     29.95847376	      7.88290663	      3.87606148	      0.00000000	      0.00000000
      8.67000000	    -53.16155267	     17.05742755	     89.99326849	      0.50346630	      0.87119163	     -0.65025785	     14.16966057	    -19.38056115	     39.97912520	     38.25129382	      0.66761102	    -24.10333941	      0.00000000	      0.00000000	    -29.87359133	     29.99489284	    -39.98565429	     23.86800105	      0.41657520	    -32.74331640	      0.00000000	      0.00000000	     89.97377379	    -89.98323599	    -89.97382254	    -47.86963244	    -39.71939103	     89.83310142	      0.10037313	      1.44659853	      0.00000000	      0.00000000	     42.32907263	     52.06345482	     29.96766825	      7.88663880	      3.88011165	      0.00000000	      0.00000000
      8.67500000	    -53.16777458	     17.05078376	     89.99327418	      0.50344589	      0.87111751	     -0.65024747	     14.18510534	    -19.37836174	     39.97914005	     38.26439061	      0.66783960	    -24.09138873	      0.00000000	      0.00000000	    -29.87303452	     29.99489419	    -39.98566108	     23.87385179	      0.41667732	    -32.73151913	      0.00000000	      0.00000000	     89.97374019	    -89.98323271	    -89.97378899	    -47.87735202	    -39.71858756	     89.83311397	      0.10026844	      1.44729088	      0.00000000	      0.00000000	     42.29402813	     52.06982103	     29.97548395	      7.88566249	      3.88380325	      0.00000000	      0.00000000
      8.68000000	    -53.17549370	     17.05246176	     89.99327482	      0.50349998	      0.87105028	     -0.65021457	     14.19357943	    -19.37343115	     39.97916384	     38.28126773	      0.66813416	    -24.07894113	      0.00000000	      0.00000000	    -29.87331659	     29.99489545	    -39.98567649	     23.87502127	      0.41669773	    -32.72400441	      0.00000000	      0.00000000	     89.97375216	    -89.98327696	    -89.97380065	    -47.87992141	    -39.72924513	     89.83289130	      0.10033408	      1.44606126	      0.00000000	      0.00000000	     42.27456764	     52.06661549	     29.98787205	      7.89342906	      3.88848997	      0.00000000	      0.00000000
      8.68500000	    -53.18506940	     17.05187494	     89.99327691	      0.50348702	      0.87098802	     -0.65022457	     14.20470780	    -19.37239210	     39.97917416	     38.30591347	      0.66856431	    -24.06816927	      0.00000000	      0.00000000	    -29.87305173	     29.99489727	    -39.98568407	     23.88850900	      0.41693314	    -32.71892396	      0.00000000	      0.00000000	     89.97375709	    -89.98329503	    -89.97380579	    -47.86918639	    -39.73218906	     89.83274352	      0.10034350	      1.44475099	      0.00000000	      0.00000000	     42.25096140	     52.06009972	     30.00071106	      7.89933632	      3.89266410	      0.00000000	      0.00000000
      8.69000000	    -53.19385816	     17.05258096	     89.99327703	      0.50350305	      0.87092127	     -0.65022117	     14.22097374	    -19.37003478	     39.97918699	     38.33237555	      0.66902616	    -24.06062500	      0.00000000	      0.00000000	    -29.87302679	     29.99489800	    -39.98569074	     23.90006742	      0.41713487	    -32.71376272	      0.00000000	      0.00000000	     89.97375847	    -89.98331832	    -89.97380721	    -47.86656278	    -39.74043983	     89.83269015	      0.10034088	      1.44394069	      0.00000000	      0.00000000	     42.22983534	     52.05588437	     30.01663395	      7.90400025	      3.89651598	      0.00000000	      0.00000000
      8.69500000	    -53.21194294	     17.05744223	     89.99327641	      0.50346523	      0.87083138	     -0.65026914	     14.23383083	    -19.38034268	     39.97920079	     38.36764979	      0.66964182	    -24.04472944	      0.00000000	      0.00000000	    -29.87334712	     29.99490023	    -39.98570091	     23.95080414	      0.41802039	    -32.70063418	      0.00000000	      0.00000000	     89.97379237	    -89.98335165	    -89.97384040	    -47.83509334	    -39.74133775	     89.83215968	      0.10043380	      1.44163613	      0.00000000	      0.00000000	     42.21226711	     52.03775888	     30.03670424	      7.91118764	      3.90083630	      0.00000000	      0.00000000
